<?xml version="1.0" encoding="UTF-8"?>
<svg xmlns="http://www.w3.org/2000/svg" xmlns:xlink="http://www.w3.org/1999/xlink" width="3750" height="3707" viewBox="0 0 3750 3707">
<path fill-rule="evenodd" fill="rgb(100%, 100%, 100%)" fill-opacity="1" d="M 0 3706.054688 L 3750 3706.054688 L 3750 -0.00390625 L 0 -0.00390625 Z M 0 3706.054688 "/>
<path fill-rule="evenodd" fill="rgb(0%, 25.097656%, 74.021912%)" fill-opacity="1" d="M 1171.320312 427.359375 L 2578.679688 427.359375 C 2682.058594 427.359375 2765.300781 524.070312 2765.300781 644.191406 L 2765.300781 3000.105469 C 2765.300781 3120.234375 2682.058594 3216.945312 2578.679688 3216.945312 L 1171.320312 3216.945312 C 1067.941406 3216.945312 984.703125 3120.234375 984.703125 3000.105469 L 984.703125 644.191406 C 984.703125 524.070312 1067.941406 427.359375 1171.320312 427.359375 Z M 1171.320312 427.359375 "/>
<path fill-rule="evenodd" fill="rgb(13.719177%, 13.719177%, 13.719177%)" fill-opacity="1" d="M 1302.488281 583.488281 L 2447.511719 583.488281 C 2555.058594 583.488281 2641.640625 680.191406 2641.640625 800.328125 L 2641.640625 2843.976562 C 2641.640625 2964.105469 2555.058594 3060.816406 2447.511719 3060.816406 L 1302.488281 3060.816406 C 1194.941406 3060.816406 1108.359375 2964.105469 1108.359375 2843.976562 L 1108.359375 800.328125 C 1108.359375 680.191406 1194.941406 583.488281 1302.488281 583.488281 Z M 1302.488281 583.488281 "/>
<path fill-rule="evenodd" fill="rgb(0%, 25.097656%, 74.021912%)" fill-opacity="1" d="M 1604.25 2866.019531 L 2145.75 2866.019531 C 2196.609375 2866.019531 2237.558594 2876.128906 2237.558594 2888.691406 L 2237.558594 3102.359375 C 2237.558594 3114.917969 2196.609375 3125.027344 2145.75 3125.027344 L 1604.25 3125.027344 C 1553.390625 3125.027344 1512.441406 3114.917969 1512.441406 3102.359375 L 1512.441406 2888.691406 C 1512.441406 2876.128906 1553.390625 2866.019531 1604.25 2866.019531 Z M 1604.25 2866.019531 "/>
<path fill-rule="evenodd" fill="rgb(13.719177%, 13.719177%, 13.719177%)" fill-opacity="1" d="M 1653.191406 2913.097656 L 2096.808594 2913.097656 C 2138.480469 2913.097656 2172.019531 2920.21875 2172.019531 2929.058594 L 2172.019531 3079.476562 C 2172.019531 3088.316406 2138.480469 3095.4375 2096.808594 3095.4375 L 1653.191406 3095.4375 C 1611.519531 3095.4375 1577.980469 3088.316406 1577.980469 3079.476562 L 1577.980469 2929.058594 C 1577.980469 2920.21875 1611.519531 2913.097656 1653.191406 2913.097656 Z M 1653.191406 2913.097656 "/>
<path fill-rule="evenodd" fill="rgb(10.205078%, 10.205078%, 10.205078%)" fill-opacity="1" d="M 1640.558594 491.121094 L 2226.871094 491.121094 C 2244.628906 491.121094 2258.921875 502.148438 2258.921875 515.851562 C 2258.921875 529.558594 2244.628906 540.578125 2226.871094 540.578125 L 1640.558594 540.578125 C 1622.808594 540.578125 1608.511719 529.558594 1608.511719 515.851562 C 1608.511719 502.148438 1622.808594 491.121094 1640.558594 491.121094 Z M 1640.558594 491.121094 "/>
<path fill-rule="evenodd" fill="rgb(10.205078%, 10.205078%, 10.205078%)" fill-opacity="1" d="M 1589.011719 511.359375 C 1589.011719 538.398438 1567.089844 560.320312 1540.039062 560.320312 C 1513 560.320312 1491.078125 538.398438 1491.078125 511.359375 C 1491.078125 498.371094 1496.238281 485.921875 1505.421875 476.738281 C 1514.609375 467.558594 1527.058594 462.398438 1540.039062 462.398438 C 1553.03125 462.398438 1565.480469 467.558594 1574.671875 476.738281 C 1583.851562 485.921875 1589.011719 498.371094 1589.011719 511.359375 Z M 1589.011719 511.359375 "/>
</svg>
